<svg width="135" height="32" viewBox="0 0 135 32" fill="none" xmlns="http://www.w3.org/2000/svg">
<g clip-path="url(#clip0_9_449)">
<mask id="mask0_9_449" style="mask-type:luminance" maskUnits="userSpaceOnUse" x="-98" y="-762" width="795" height="1124">
<path d="M-97.6089 361.082H696.092V-761.438H-97.6089V361.082Z" fill="white"/>
</mask>
<g mask="url(#mask0_9_449)">
<path d="M36.3652 7.94145H43.6079C46.5412 7.94145 48.7279 9.22679 48.7279 11.9348C48.7279 13.9201 47.7132 15.0255 45.9532 15.6121V15.6575C48.0519 16.0868 49.1346 17.2148 49.1346 19.1321C49.1346 22.9001 45.8172 23.6895 42.9972 23.6895H36.3652V7.94145ZM40.5612 14.1695H41.7346C43.1106 14.1695 44.5332 13.8308 44.5332 12.4988C44.5332 11.0561 43.1786 10.9201 41.7786 10.9201H40.5612V14.1695ZM40.5612 20.7121H41.8026C43.3372 20.7121 44.9386 20.4855 44.9386 18.8841C44.9386 17.1695 43.2919 17.0121 41.8466 17.0121H40.5612V20.7121Z" fill="#00529C"/>
</g>
<path d="M54.6425 7.94145H59.7865L65.8558 23.6895H61.2532L60.0798 20.3281H54.1692L52.9278 23.6895H48.6638L54.6425 7.94145ZM57.2145 11.1908H57.1692L55.1385 17.3508H59.0878L57.2145 11.1908Z" fill="#00529C"/>
<path d="M66.4397 7.94145H71.7864L77.1117 18.6361H77.1557L77.089 7.94145H80.925V23.6895H75.7117L70.2077 12.9268H70.1637L70.297 23.6895H66.4397V7.94145Z" fill="#00529C"/>
<path d="M82.3489 7.94145H86.5449V14.3721H86.5902L91.3275 7.94145H96.3809L90.5609 15.2735L96.8329 23.6895H91.4849L86.5902 16.5375H86.5449V23.6895H82.3489V7.94145Z" fill="#00529C"/>
<mask id="mask1_9_449" style="mask-type:luminance" maskUnits="userSpaceOnUse" x="-98" y="-762" width="795" height="1124">
<path d="M-97.6089 361.082H696.092V-761.438H-97.6089V361.082Z" fill="white"/>
</mask>
<g mask="url(#mask1_9_449)">
<path d="M102.037 7.94145H109.28C112.212 7.94145 114.401 9.22679 114.401 11.9348C114.401 13.9201 113.386 15.0255 111.626 15.6121V15.6575C113.725 16.0868 114.806 17.2148 114.806 19.1321C114.806 22.9001 111.49 23.6895 108.67 23.6895H102.037V7.94145ZM106.233 14.1695H107.406C108.784 14.1695 110.204 13.8308 110.204 12.4988C110.204 11.0561 108.852 10.9201 107.452 10.9201H106.233V14.1695ZM106.233 20.7121H107.474C109.008 20.7121 110.61 20.4855 110.61 18.8841C110.61 17.1695 108.964 17.0121 107.52 17.0121H106.233V20.7121Z" fill="#00529C"/>
<path d="M115.737 7.94145H123.228C126.025 7.94145 128.304 9.20545 128.304 11.9135C128.304 14.0108 127.312 15.4095 125.281 15.8828V15.9281C126.633 16.2895 126.724 17.4855 127.514 19.4028L129.048 23.6895H124.672L123.769 20.8481C122.912 18.1401 122.369 17.4615 120.813 17.4615H119.933V23.6895H115.737V7.94145ZM119.933 14.4841H121.038C122.393 14.4841 124.108 14.4388 124.108 12.6561C124.108 11.1908 122.641 10.9201 121.038 10.9201H119.933V14.4841Z" fill="#00529C"/>
</g>
<path d="M130.204 7.94116H134.4V23.6892H130.204V7.94116Z" fill="#00529C"/>
<path d="M26.7893 2.47955e-05H4.828C2.16133 2.47955e-05 0 2.21469 0 4.94669V4.99869V26.696C0 29.4014 2.12133 31.6014 4.75333 31.6414H26.7773C29.444 31.6414 31.6067 29.428 31.6067 26.696L31.616 4.94669C31.616 2.21469 29.456 2.47955e-05 26.7893 2.47955e-05ZM7.43733 29.1067L6.24 29.12C4.78933 29.12 3.61333 27.928 3.61333 26.4574L3.60667 26.248V6.16269L3.61466 5.08002C3.66933 3.65736 4.75066 2.51336 6.16533 2.51336H8.60133C10.8093 2.51336 12.5987 4.43336 12.5987 6.69602C12.5987 7.81602 12.16 8.83202 11.4493 9.57069L5.23466 15.8774L11.06 21.8094C11.8107 22.584 12.264 23.6 12.264 24.7134C12.264 27.14 10.104 29.1067 7.43733 29.1067ZM25.3453 29.0867L14.4853 29.0827C14.4853 29.0827 15.74 26.3694 15.74 24.6894C15.74 22.64 15.056 20.8107 13.984 19.6L10.2693 15.8134L14.06 11.896C15.1893 10.836 15.9387 8.95336 15.9387 6.80803C15.9387 5.10936 15.4693 3.60536 14.7133 2.51336H17.344C19.552 2.51336 21.3427 4.43336 21.3427 6.69602C21.3427 7.81602 20.904 8.83202 20.1933 9.57069L14.0973 15.812L26.7587 28.7227C26.3573 28.9747 25.852 29.0867 25.3453 29.0867ZM27.9973 25.056L18.924 15.808L23.2453 11.416C24.124 10.316 24.6827 8.66002 24.6827 6.80803C24.6827 5.09869 24.2067 3.55602 23.444 2.46402L25.3773 2.52269C26.828 2.52269 28.004 3.71469 28.004 5.18536L27.9973 25.056Z" fill="#00529C"/>
</g>
<defs>
<clipPath id="clip0_9_449">
<rect width="134.4" height="31.6413" fill="white"/>
</clipPath>
</defs>
</svg>
