<svg width="94" height="27" viewBox="0 0 94 27" fill="none" xmlns="http://www.w3.org/2000/svg">
<g clip-path="url(#clip0_9_405)">
<path fill-rule="evenodd" clip-rule="evenodd" d="M37.1571 20.4786C38.9436 20.6072 41.0254 19.2129 41.7587 18.4169C44.308 15.6457 44.3695 11.6385 41.803 8.73627C40.8482 7.65597 38.604 6.46196 37.1842 6.63006H32.0437V20.4613L37.1694 20.4786H37.1571ZM34.9424 17.4825V9.60891C35.7471 9.55588 36.5543 9.55588 37.3589 9.60891C37.992 9.68266 38.5959 9.9175 39.1134 10.2912C42.0663 12.3183 40.8359 17.1512 37.3097 17.4751C36.5216 17.5307 35.7308 17.5332 34.9424 17.4825Z" fill="#008CEB"/>
<path fill-rule="evenodd" clip-rule="evenodd" d="M82.2843 20.5034H85.2151V17.522H91.0298L91.047 20.4885H93.9777V15.574C93.9777 14.0908 94.1008 12.2417 93.7317 10.8993C93.3964 9.67046 92.6703 8.58548 91.6639 7.80991C90.6576 7.03433 89.4264 6.61073 88.1581 6.60373C86.8897 6.59672 85.6539 7.0067 84.6392 7.77112C83.6244 8.53554 82.8865 9.61244 82.5378 10.8375C82.1441 12.1626 82.2769 14.0636 82.2769 15.5345C82.2769 17.1957 82.2597 18.8668 82.2769 20.5281L82.2843 20.5034ZM85.2175 14.5234C85.2003 13.2874 85.0699 11.9648 85.6482 11.0131C85.902 10.5749 86.2668 10.2121 86.7055 9.96151C87.1442 9.71096 87.6412 9.58163 88.1458 9.58667C88.6478 9.59039 89.1403 9.72492 89.5751 9.9771C90.0098 10.2293 90.372 10.5905 90.6262 11.0254C91.1971 12.0142 91.0618 13.2503 91.047 14.5259L85.2175 14.5234Z" fill="#008CEB"/>
<path fill-rule="evenodd" clip-rule="evenodd" d="M48.7692 20.5009H51.69C51.69 19.8779 51.6113 17.9719 51.7171 17.5196H57.5097L57.5294 20.4984H60.4552C60.4404 18.8471 60.4552 17.1982 60.4552 15.5542C60.4552 14.1452 60.5856 12.128 60.2091 10.8771C59.8717 9.64981 59.1445 8.56687 58.138 7.7931C57.1315 7.01933 55.901 6.59709 54.6336 6.59065C53.3662 6.58421 52.1315 6.99393 51.1173 7.75744C50.1031 8.52095 49.3649 9.59644 49.0152 10.8202C48.624 12.1057 48.7568 14.071 48.7568 15.5023C48.7568 17.1537 48.7199 18.8471 48.7568 20.4935L48.7692 20.5009ZM51.6925 14.5234C51.6728 13.2874 51.5473 11.9475 52.1256 11.0155C52.3793 10.5785 52.7427 10.2159 53.1794 9.96388C53.6161 9.71187 54.111 9.57926 54.6146 9.57926C55.1183 9.57926 55.6131 9.71187 56.0498 9.96388C56.4865 10.2159 56.8499 10.5785 57.1037 11.0155C57.677 12.0044 57.5392 13.2602 57.5294 14.5185L51.6925 14.5234Z" fill="#008CEB"/>
<path fill-rule="evenodd" clip-rule="evenodd" d="M65.5959 12.0316L65.554 14.0909C65.554 15.8213 65.4704 19.0523 65.554 20.4589H68.4183C68.4848 19.4701 68.315 12.4469 68.4946 12.222C68.4946 10.8574 69.9145 9.58676 71.3466 9.58181C72.091 9.57731 72.8079 9.86466 73.3447 10.3828C73.7089 10.7165 74.2675 11.4779 74.2576 12.2467C74.3905 12.3233 74.2847 19.6629 74.3265 20.4762H77.1933L77.1711 12.0836C77.2425 11.426 76.8488 10.41 76.5953 9.89577C76.1253 8.91604 75.3916 8.08809 74.4773 7.50568C73.563 6.92328 72.5047 6.60969 71.4221 6.60043C70.3396 6.59117 69.2761 6.8866 68.352 7.45328C67.428 8.01995 66.6804 8.83523 66.1938 9.80677C65.9477 10.3135 65.5343 11.3568 65.5959 12.0316Z" fill="#008CEB"/>
<path d="M13.4381 27C20.8597 27 26.8761 20.9558 26.8761 13.5C26.8761 6.04416 20.8597 0 13.4381 0C6.01643 0 0 6.04416 0 13.5C0 20.9558 6.01643 27 13.4381 27Z" fill="#008CEB"/>
<path d="M21.2681 13.5568V17.3564C21.2681 17.6036 21.1622 17.6555 20.9555 17.5344C20.679 17.3677 20.3912 17.2206 20.0943 17.0943C19.1974 16.7354 18.226 16.6055 17.2669 16.7161C16.2201 16.8525 15.1927 17.1114 14.2057 17.4874C13.2215 17.8211 12.2568 18.1821 11.2529 18.4614C10.4213 18.7095 9.55591 18.8238 8.68878 18.8001C7.7278 18.7626 6.79384 18.4701 5.98198 17.9522C5.87997 17.8904 5.79628 17.8024 5.73959 17.6972C5.6829 17.592 5.65529 17.4735 5.65962 17.3539C5.65962 14.8654 5.65962 12.3768 5.65962 9.88824C5.65962 9.76711 5.65962 9.62373 5.76789 9.56193C5.87617 9.50013 5.9869 9.60148 6.08041 9.66328C6.96201 10.2621 8.00616 10.5729 9.0702 10.5532C9.83102 10.5219 10.5834 10.3812 11.3045 10.1354C12.3282 9.81655 13.3174 9.39383 14.3239 9.03538C15.1073 8.73291 15.9106 8.48511 16.728 8.29375C17.4295 8.12871 18.1575 8.11138 18.866 8.24285C19.5745 8.37431 20.2482 8.65173 20.8448 9.05763C20.9816 9.14181 21.0936 9.26107 21.1692 9.40314C21.2449 9.54521 21.2816 9.70497 21.2754 9.86599C21.2754 11.102 21.2754 12.3381 21.2754 13.5741L21.2681 13.5568Z" fill="#FEFEFE"/>
</g>
<defs>
<clipPath id="clip0_9_405">
<rect width="94" height="27" fill="white"/>
</clipPath>
</defs>
</svg>
