<svg width="126" height="31" viewBox="0 0 126 31" fill="none" xmlns="http://www.w3.org/2000/svg">
<g clip-path="url(#clip0_9_428)">
<path fill-rule="evenodd" clip-rule="evenodd" d="M0 0H126.003V31.0039H0V0Z" fill="white" fill-opacity="0.01"/>
<path d="M13.6223 28.7891C21.1457 28.7891 27.2446 22.8402 27.2446 15.502C27.2446 8.16369 21.1457 2.21484 13.6223 2.21484C6.09892 2.21484 0 8.16369 0 15.502C0 22.8402 6.09892 28.7891 13.6223 28.7891Z" fill="#00AED6"/>
<path fill-rule="evenodd" clip-rule="evenodd" d="M21.5606 15.0893C21.5155 14.281 21.1434 13.5225 20.5248 12.9784C19.9063 12.4342 19.0912 12.1483 18.2565 12.1826H9.65231C9.57746 12.1824 9.50338 12.1678 9.43433 12.1399C9.36527 12.1119 9.30258 12.071 9.24984 12.0195C9.19709 11.968 9.15532 11.907 9.12692 11.8399C9.09852 11.7728 9.08403 11.701 9.0843 11.6284C9.0843 11.3223 9.3383 11.0742 9.65231 11.0742H18.3705C18.3488 10.516 18.1448 9.97886 17.7879 9.5401C17.431 9.10135 16.9396 8.78363 16.3845 8.63268C13.8443 8.19519 11.2444 8.19519 8.70429 8.63268C7.9967 8.80438 7.35867 9.17809 6.87295 9.70535C6.38722 10.2326 6.07621 10.8891 5.98023 11.5897C5.57723 14.1976 5.57723 16.849 5.98023 19.4569C6.12795 20.1963 6.50377 20.8748 7.05801 21.4027C7.61224 21.9307 8.3188 22.2833 9.0843 22.4139C12.2374 22.796 15.4274 22.796 18.5805 22.4139C19.2662 22.2754 19.8896 21.9314 20.3623 21.4306C20.8351 20.9298 21.1332 20.2976 21.2146 19.6236C21.4946 18.1276 21.6126 16.6084 21.5606 15.0893ZM18.7345 16.9495V17.4417C18.7348 17.5142 18.7203 17.5861 18.6919 17.6532C18.6635 17.7203 18.6217 17.7813 18.569 17.8327C18.5162 17.8842 18.4535 17.9251 18.3845 17.9531C18.3154 17.9811 18.2414 17.9956 18.1665 17.9959C18.0916 17.9956 18.0176 17.9811 17.9485 17.9531C17.8795 17.9251 17.8168 17.8842 17.764 17.8327C17.7113 17.7813 17.6695 17.7203 17.6411 17.6532C17.6127 17.5861 17.5982 17.5142 17.5985 17.4417V16.9495C17.4691 16.838 17.3778 16.691 17.3366 16.528C17.2955 16.365 17.3064 16.1938 17.3681 16.037C17.4297 15.8802 17.539 15.7452 17.6816 15.65C17.8242 15.5548 17.9933 15.5039 18.1665 15.5039C18.3397 15.5039 18.5088 15.5548 18.6514 15.65C18.794 15.7452 18.9033 15.8802 18.965 16.037C19.0266 16.1938 19.0375 16.365 18.9964 16.528C18.9552 16.691 18.8639 16.838 18.7345 16.9495Z" fill="white"/>
<path d="M37.8808 22.1097C38.4467 22.8997 39.211 23.537 40.1016 23.9615C40.9922 24.386 41.9797 24.5836 42.971 24.5358C45.345 24.5358 47.0891 23.0573 47.0891 21.0478V19.9879H47.0311C45.731 21.2281 43.957 21.8753 42.1429 21.7745C40.7321 21.8122 39.3366 21.4834 38.1012 20.8224C36.8657 20.1614 35.8353 19.1922 35.1168 18.0153C34.3934 16.835 34.0055 15.4901 33.9925 14.1175C33.9795 12.7448 34.3419 11.3933 35.0428 10.2003C35.7398 9.01143 36.7523 8.02477 37.9754 7.34265C39.1986 6.66053 40.5877 6.30779 41.9989 6.32097C42.9148 6.26413 43.833 6.38802 44.698 6.68513C45.563 6.98223 46.3567 7.44638 47.0311 8.04944H47.0891V6.60001H51.1491V20.9936C51.1491 25.1772 47.7491 28.078 42.971 28.078C41.4266 28.1588 39.8846 27.8821 38.4726 27.2708C37.0605 26.6596 35.819 25.7313 34.8508 24.5629L37.8808 22.1097ZM46.919 13.1535C46.919 11.4812 44.973 9.9465 42.801 9.9465C40.0549 9.9465 38.2249 11.5645 38.2249 13.9906C38.1449 15.1416 38.5849 16.2674 39.4349 17.0677C39.8532 17.4633 40.3561 17.765 40.908 17.9515C41.46 18.1381 42.0475 18.2048 42.629 18.147C45.003 18.147 46.919 16.6976 46.919 14.8839V13.1535ZM61.8394 6.18146C66.7875 6.18146 70.3916 9.61127 70.3916 13.9906C70.3916 18.3699 66.7875 21.8016 61.8394 21.8016C60.3719 21.8935 58.9066 21.5923 57.6041 20.9309C56.3017 20.2696 55.2122 19.2736 54.4552 18.0521C53.6935 16.8262 53.291 15.4224 53.291 13.9915C53.291 12.5607 53.6935 11.1569 54.4552 9.93099C55.2122 8.70953 56.3017 7.71353 57.6041 7.05215C58.9066 6.39077 60.3719 6.08953 61.8394 6.18146ZM61.8394 9.80504C60.6993 9.81629 59.6103 10.2654 58.8116 11.0538C58.0129 11.8421 57.5697 12.9053 57.5793 14.0099C57.5803 15.1146 58.0337 16.1736 58.8399 16.9547C59.6461 17.7358 60.7393 18.1751 61.8794 18.1761C63.0195 18.17 64.1105 17.7258 64.913 16.941C65.7154 16.1563 66.1637 15.0952 66.1595 13.9906C66.186 13.4323 66.0921 12.8748 65.8837 12.3536C65.6754 11.8325 65.3572 11.3591 64.9495 10.9638C64.5439 10.5704 64.0573 10.264 63.5215 10.0647C62.9857 9.86541 62.4125 9.77565 61.8394 9.80504ZM72.5876 6.60001H76.6477V7.90992H76.7077C77.3629 7.32137 78.1327 6.86535 78.972 6.56856C79.8114 6.27177 80.7034 6.14016 81.5958 6.18146C85.9559 6.25897 89.452 9.72365 89.46 13.977C89.468 18.2323 85.9839 21.7086 81.6238 21.8016C79.9038 21.8404 78.2238 21.2881 76.8777 20.2398H76.8197V27.6594H72.5876V6.60001ZM80.9398 9.83604C78.7078 9.83604 76.8197 11.3688 76.8197 13.043V14.911C76.8197 16.6976 78.6518 18.1742 80.9658 18.1742C82.1033 18.167 83.1912 17.7225 83.9905 16.9383C84.7897 16.1541 85.2348 15.0945 85.2279 13.9925C85.2282 13.4467 85.1175 12.9061 84.9021 12.4018C84.6868 11.8974 84.371 11.439 83.9728 11.0529C83.5746 10.6667 83.1018 10.3604 82.5814 10.1512C82.061 9.94212 81.5032 9.83436 80.9398 9.83411V9.83604ZM97.6142 12.5683C100.388 12.2059 101.218 11.8164 101.218 11.0626C101.218 10.086 100.158 9.50081 98.5302 9.50081C97.678 9.43267 96.8288 9.6623 96.1362 10.1482C95.4436 10.634 94.9533 11.344 94.7541 12.1497L90.75 11.3417C91.3221 8.32848 94.4981 6.18146 98.4142 6.18146C102.846 6.18146 105.594 8.38467 105.594 11.9811V21.3831H101.788V19.7651H101.728C101.095 20.4633 100.303 21.0103 99.4152 21.3636C98.5275 21.7168 97.5675 21.8667 96.6102 21.8016C93.2641 21.8016 90.95 20.017 90.95 17.3933C90.95 14.632 92.8381 13.2097 97.6142 12.5683ZM101.56 14.1301H101.504C101.13 14.661 100.33 14.9672 98.2722 15.3315C95.7842 15.7772 94.8981 16.25 94.8981 17.1142C94.8981 18.0075 95.6422 18.3989 97.2422 18.3989C99.6742 18.3989 101.562 17.3099 101.562 15.8876L101.56 14.1301ZM113.649 20.575L106.642 6.60001H111.305L115.909 16.25H115.965L120.513 6.60001H125.203L114.709 27.6633H110.046L113.649 20.575Z" fill="white"/>
</g>
<defs>
<clipPath id="clip0_9_428">
<rect width="126" height="31" fill="white"/>
</clipPath>
</defs>
</svg>
