<svg width="471" height="471" viewBox="0 0 471 471" fill="none" xmlns="http://www.w3.org/2000/svg">
<path d="M102.33 78.5C89.1692 78.5 78.5 89.1692 78.5 102.33V133.17C78.5 146.331 89.1692 157 102.33 157H133.17C146.331 157 157 146.331 157 133.17V102.33C157 89.1692 146.331 78.5 133.17 78.5H102.33ZM102.33 58.875H133.17C157.169 58.875 176.625 78.3306 176.625 102.33V133.17C176.625 157.169 157.169 176.625 133.17 176.625H102.33C78.3306 176.625 58.875 157.169 58.875 133.17V102.33C58.875 78.3306 78.3306 58.875 102.33 58.875ZM102.33 294.375H133.17C157.169 294.375 176.625 313.831 176.625 337.83V368.67C176.625 392.669 157.169 412.125 133.17 412.125H102.33C78.3306 412.125 58.875 392.669 58.875 368.67V337.83C58.875 313.831 78.3306 294.375 102.33 294.375ZM102.33 314C89.1692 314 78.5 324.669 78.5 337.83V368.67C78.5 381.831 89.1692 392.5 102.33 392.5H133.17C146.331 392.5 157 381.831 157 368.67V337.83C157 324.669 146.331 314 133.17 314H102.33ZM337.83 58.875H368.67C392.669 58.875 412.125 78.3306 412.125 102.33V133.17C412.125 157.169 392.669 176.625 368.67 176.625H337.83C313.831 176.625 294.375 157.169 294.375 133.17V102.33C294.375 78.3306 313.831 58.875 337.83 58.875ZM337.83 78.5C324.669 78.5 314 89.1692 314 102.33V133.17C314 146.331 324.669 157 337.83 157H368.67C381.831 157 392.5 146.331 392.5 133.17V102.33C392.5 89.1692 381.831 78.5 368.67 78.5H337.83ZM255.125 392.5V382.688C255.125 377.268 259.518 372.875 264.938 372.875C270.357 372.875 274.75 377.268 274.75 382.688V392.5H284.562C289.982 392.5 294.375 396.893 294.375 402.312C294.375 407.732 289.982 412.125 284.562 412.125H245.312C239.893 412.125 235.5 407.732 235.5 402.312C235.5 396.893 239.893 392.5 245.312 392.5H255.125ZM255.125 215.875H274.75V206.062C274.75 200.643 279.143 196.25 284.562 196.25C289.982 196.25 294.375 200.643 294.375 206.062V225.688C294.375 231.107 289.982 235.5 284.562 235.5H225.688C220.268 235.5 215.875 231.107 215.875 225.688C215.875 220.268 220.268 215.875 225.688 215.875H235.5V196.25H225.688C220.268 196.25 215.875 191.857 215.875 186.438C215.875 181.018 220.268 176.625 225.688 176.625H245.312C250.732 176.625 255.125 181.018 255.125 186.438V215.875ZM372.875 235.5V245.312C372.875 250.732 368.482 255.125 363.062 255.125C357.643 255.125 353.25 250.732 353.25 245.312V206.062C353.25 200.643 357.643 196.25 363.062 196.25C368.482 196.25 372.875 200.643 372.875 206.062V215.875H392.5V206.062C392.5 200.643 396.893 196.25 402.312 196.25C407.732 196.25 412.125 200.643 412.125 206.062V225.688C412.125 231.107 407.732 235.5 402.312 235.5H372.875ZM255.125 274.75H225.688C220.268 274.75 215.875 270.357 215.875 264.938C215.875 259.518 220.268 255.125 225.688 255.125H264.938C270.357 255.125 274.75 259.518 274.75 264.938V304.188C274.75 309.607 270.357 314 264.938 314H206.062C200.643 314 196.25 309.607 196.25 304.188C196.25 298.768 200.643 294.375 206.062 294.375H255.125V274.75ZM107.938 98.125H127.562C132.982 98.125 137.375 102.518 137.375 107.938V127.562C137.375 132.982 132.982 137.375 127.562 137.375H107.938C102.518 137.375 98.125 132.982 98.125 127.562V107.938C98.125 102.518 102.518 98.125 107.938 98.125ZM107.938 333.625H127.562C132.982 333.625 137.375 338.018 137.375 343.438V363.062C137.375 368.482 132.982 372.875 127.562 372.875H107.938C102.518 372.875 98.125 368.482 98.125 363.062V343.438C98.125 338.018 102.518 333.625 107.938 333.625ZM343.438 98.125H363.062C368.482 98.125 372.875 102.518 372.875 107.938V127.562C372.875 132.982 368.482 137.375 363.062 137.375H343.438C338.018 137.375 333.625 132.982 333.625 127.562V107.938C333.625 102.518 338.018 98.125 343.438 98.125ZM255.125 98.125V78.5H215.875V107.938C215.875 113.357 211.482 117.75 206.062 117.75C200.643 117.75 196.25 113.357 196.25 107.938V68.6875C196.25 63.2682 200.643 58.875 206.062 58.875H264.938C270.357 58.875 274.75 63.2682 274.75 68.6875V107.938C274.75 113.357 270.357 117.75 264.938 117.75H245.312C239.893 117.75 235.5 113.357 235.5 107.938C235.5 102.518 239.893 98.125 245.312 98.125H255.125ZM206.062 157C200.643 157 196.25 152.607 196.25 147.188C196.25 141.768 200.643 137.375 206.062 137.375H264.938C270.357 137.375 274.75 141.768 274.75 147.188C274.75 152.607 270.357 157 264.938 157H206.062ZM215.875 353.25V402.312C215.875 407.732 211.482 412.125 206.062 412.125C200.643 412.125 196.25 407.732 196.25 402.312V343.438C196.25 338.018 200.643 333.625 206.062 333.625H264.938C270.357 333.625 274.75 338.018 274.75 343.438C274.75 348.857 270.357 353.25 264.938 353.25H215.875ZM176.625 235.5H186.438C191.857 235.5 196.25 239.893 196.25 245.312V264.938C196.25 270.357 191.857 274.75 186.438 274.75C181.018 274.75 176.625 270.357 176.625 264.938V255.125H166.812C161.393 255.125 157 250.732 157 245.312V206.062C157 200.643 161.393 196.25 166.812 196.25H186.438C191.857 196.25 196.25 200.643 196.25 206.062C196.25 211.482 191.857 215.875 186.438 215.875H176.625V235.5ZM117.75 215.875H107.938C102.518 215.875 98.125 211.482 98.125 206.062C98.125 200.643 102.518 196.25 107.938 196.25H127.562C132.982 196.25 137.375 200.643 137.375 206.062V264.938C137.375 270.357 132.982 274.75 127.562 274.75C122.143 274.75 117.75 270.357 117.75 264.938V215.875ZM314 206.062C314 200.643 318.393 196.25 323.812 196.25C329.232 196.25 333.625 200.643 333.625 206.062V245.312C333.625 250.732 329.232 255.125 323.812 255.125C318.393 255.125 314 250.732 314 245.312V206.062ZM392.5 274.75V264.938C392.5 259.518 396.893 255.125 402.312 255.125C407.732 255.125 412.125 259.518 412.125 264.938V284.562C412.125 289.982 407.732 294.375 402.312 294.375H343.438C338.018 294.375 333.625 289.982 333.625 284.562C333.625 279.143 338.018 274.75 343.438 274.75H392.5ZM314 314H363.062C368.482 314 372.875 318.393 372.875 323.812C372.875 329.232 368.482 333.625 363.062 333.625H304.188C298.768 333.625 294.375 329.232 294.375 323.812V284.562C294.375 279.143 298.768 274.75 304.188 274.75C309.607 274.75 314 279.143 314 284.562V314ZM392.5 392.5V323.812C392.5 318.393 396.893 314 402.312 314C407.732 314 412.125 318.393 412.125 323.812V402.312C412.125 407.732 407.732 412.125 402.312 412.125H323.812C318.393 412.125 314 407.732 314 402.312C314 396.893 318.393 392.5 323.812 392.5H392.5ZM304.188 372.875C298.768 372.875 294.375 368.482 294.375 363.062C294.375 357.643 298.768 353.25 304.188 353.25H363.062C368.482 353.25 372.875 357.643 372.875 363.062C372.875 368.482 368.482 372.875 363.062 372.875H304.188ZM78.5 255.125H88.3125C93.7318 255.125 98.125 259.518 98.125 264.938C98.125 270.357 93.7318 274.75 88.3125 274.75H68.6875C63.2682 274.75 58.875 270.357 58.875 264.938V206.062C58.875 200.643 63.2682 196.25 68.6875 196.25C74.1068 196.25 78.5 200.643 78.5 206.062V255.125Z" fill="white"/>
</svg>
