<svg width="78" height="29" viewBox="0 0 78 29" fill="none" xmlns="http://www.w3.org/2000/svg">
<g clip-path="url(#clip0_9_389)">
<path d="M74.8045 17.7756V15.2793V10.2918H67.3763H62.4233V7.79548H74.8045V2.80542H62.4233H54.9951V7.79548V10.2918V15.2793H62.4233H67.3763V17.7756H54.9951V22.7657H67.3763H74.8045V17.7756Z" fill="white"/>
<path d="M52.5199 2.80542H47.5669V22.7631H52.5199V2.80542Z" fill="white"/>
<path d="M25.2825 2.80542V7.79548H40.1389V10.2918H30.2329H25.2825V15.2793V22.7657H30.2329V15.3552L37.6637 22.7657H45.0919L37.3413 15.2793H40.1389H45.0919V10.2918V7.79548V2.80542H40.1389H25.2825Z" fill="white"/>
<path d="M10.4233 15.2793H15.3633V10.3024H10.4233V15.2793ZM11.6635 11.5388H14.1387V14.0325H11.6635V11.5388Z" fill="white"/>
<path d="M7.94812 2.80542H3.61392C3.45013 2.80667 3.29333 2.87249 3.17712 2.98878C3.1193 3.04683 3.07345 3.11583 3.04222 3.19181C3.01098 3.26778 2.99498 3.34923 2.99512 3.43147V22.1396C2.99498 22.2219 3.01098 22.3033 3.04222 22.3793C3.07345 22.4553 3.1193 22.5243 3.17712 22.5823C3.2936 22.6979 3.45044 22.7628 3.61392 22.7631H15.3763V17.7861H7.94812V2.80542Z" fill="white"/>
<path d="M22.1857 2.80542H10.4233V7.79548H17.8541V15.2793H22.7941V3.43147C22.7957 3.26665 22.7331 3.10778 22.6199 2.98878C22.5039 2.87381 22.3485 2.80817 22.1857 2.80542Z" fill="white"/>
<path d="M22.8072 17.7756H17.8542V29.0026H22.8072V17.7756Z" fill="white"/>
<path d="M9.906 0H0.6188C0.454895 0.000689494 0.297898 0.0665936 0.181998 0.18336C0.0660989 0.300127 0.000684373 0.458299 0 0.623431L0 9.98013H1.2376V1.85981C1.24099 1.69651 1.3076 1.541 1.42321 1.42649C1.53882 1.31197 1.69427 1.24751 1.8564 1.24686H9.9164L9.906 0Z" fill="white"/>
<path d="M76.7623 16.2145V24.3348C76.7616 24.4999 76.6962 24.6581 76.5803 24.7749C76.4644 24.8916 76.3074 24.9575 76.1435 24.9582H68.0835V26.1946H77.3707C77.4527 26.1956 77.5342 26.1803 77.6103 26.1495C77.6864 26.1186 77.7557 26.0729 77.8142 26.015C77.8727 25.957 77.9192 25.8879 77.9511 25.8118C77.983 25.7356 77.9996 25.6538 77.9999 25.5712V16.2145H76.7623Z" fill="white"/>
</g>
<defs>
<clipPath id="clip0_9_389">
<rect width="78" height="29" fill="white"/>
</clipPath>
</defs>
</svg>
