<svg width="121" height="39" viewBox="0 0 121 39" fill="none" xmlns="http://www.w3.org/2000/svg">
<g clip-path="url(#clip0_9_440)">
<path fill-rule="evenodd" clip-rule="evenodd" d="M17.787 0C7.98845 0 0.0447016 7.96563 0.0447016 17.7715C0.0385469 21.5199 1.22099 25.1733 3.42118 28.2037C4.1845 27.8384 4.974 27.5309 5.78308 27.2836C3.71407 24.6807 2.48439 21.373 2.48439 17.7912C2.48439 9.35567 9.33529 2.48589 17.7477 2.48589C26.1601 2.48589 33.011 9.35518 33.011 17.7907C33.011 23.193 30.2006 27.9683 25.9454 30.6887C26.3555 30.6887 26.7655 30.6887 27.1948 30.6694C28.5805 30.5909 29.8885 29.9645 31.001 29.4561C33.8114 26.3043 35.5289 22.3509 35.5289 17.771C35.5289 7.96611 27.5852 0 17.787 0Z" fill="#EA5F00"/>
<path fill-rule="evenodd" clip-rule="evenodd" d="M29.0289 35.4659C28.0335 35.7986 27.0579 35.9941 26.1211 36.0139C22.1588 36.1703 19.3091 34.9768 16.5765 33.8024C14.1363 32.7648 11.8527 31.7865 9.04231 31.9429C6.38751 32.1582 4.53362 33.6459 4.45535 33.7042C3.90893 34.1351 3.83114 34.9373 4.26041 35.4857C4.68967 36.0336 5.5093 36.1314 6.0562 35.7009C6.07541 35.7009 7.40256 34.6441 9.23725 34.5068C11.3845 34.4091 13.3561 35.2112 15.6003 36.1901C18.1572 37.2859 21.0069 38.4998 24.8131 38.6168C25.2818 38.6365 25.7499 38.6168 26.2382 38.5975C27.429 38.5585 28.6582 38.3231 29.8879 37.9124C30.2059 37.7993 30.4674 37.5663 30.6169 37.263C30.7663 36.9596 30.792 36.6098 30.6883 36.2878C30.4343 35.5834 29.693 35.231 29.0289 35.4659Z" fill="#2673DD"/>
<path fill-rule="evenodd" clip-rule="evenodd" d="M33.1084 29.7291C31.8984 30.5707 29.4587 31.9993 26.6675 32.0975C23.1153 32.254 20.7923 31.2164 18.3137 30.1595C15.7175 29.0247 13.0243 27.8503 8.98378 28.0266C5.23614 28.1633 2.05508 30.3165 0.493128 31.5688C0.357438 31.6773 0.244616 31.8117 0.161229 31.9643C0.0778427 32.1169 0.0255568 32.2846 0.00741502 32.4576C-0.0107267 32.6307 0.0056381 32.8056 0.055557 32.9723C0.105476 33.1389 0.187952 33.2939 0.298184 33.4283C0.406339 33.5644 0.540405 33.6775 0.692576 33.7611C0.844748 33.8447 1.01199 33.8972 1.18456 33.9154C1.35713 33.9335 1.53158 33.9171 1.69777 33.8671C1.86395 33.817 2.01855 33.7343 2.15256 33.6238C3.46003 32.5669 6.09466 30.7667 9.08125 30.6492C12.536 30.512 14.8196 31.5101 17.2401 32.5669C19.6217 33.6045 22.0609 34.6806 25.5747 34.7394C25.9651 34.7394 26.3554 34.7394 26.7655 34.7201C30.2198 34.5829 33.1478 32.8804 34.6113 31.8818C35.2163 31.4711 35.3531 30.6492 34.9431 30.0425C34.5335 29.4551 33.6942 29.2986 33.1089 29.7296L33.1084 29.7291Z" fill="#2673DD"/>
<path fill-rule="evenodd" clip-rule="evenodd" d="M18.7819 28.8499L18.8208 28.8692C20.3631 29.4956 21.8463 30.1022 23.5835 30.4349C28.4043 28.2235 31.7616 23.3499 31.7616 17.6935C31.7808 9.98208 25.4965 3.69971 17.8062 3.69971C10.1155 3.69971 3.81105 9.98208 3.81105 17.6935C3.80664 21.0796 5.03531 24.3508 7.26627 26.8927C7.69553 26.8142 8.12479 26.7752 8.57374 26.7362C13.0239 26.4815 16.0882 27.7343 18.7819 28.8499ZM19.7773 19.4162C19.524 19.1616 19.2261 18.956 18.8986 18.8096C18.5481 18.6329 18.1572 18.4961 17.7477 18.3589C17.3491 18.2306 16.958 18.0803 16.5761 17.9087C15.7564 17.5957 15.0732 17.1258 14.5075 16.4604C13.941 15.8147 13.6874 14.9929 13.6874 13.9947C13.7071 13.3486 13.844 12.7814 14.0778 12.2917C14.3318 11.8026 14.6636 11.3914 15.0929 11.0784C15.5226 10.7654 15.9908 10.5103 16.518 10.3543C17.0632 10.1956 17.6284 10.1164 18.1961 10.1193H18.2355C19.1334 10.1386 19.9333 10.3148 20.5969 10.6282C21.2575 10.9589 21.885 11.3522 22.471 11.8026L21.0852 13.7988C20.6949 13.5051 20.2651 13.2701 19.8359 13.0746C19.3869 12.8787 18.8405 12.7617 18.1966 12.7222C17.7083 12.6832 17.2593 12.7809 16.8886 13.0159C16.4983 13.2311 16.3029 13.5638 16.3029 13.9943C16.3029 14.249 16.3614 14.4839 16.4983 14.6794C16.6351 14.8754 16.8301 15.0516 17.0644 15.1883C17.2987 15.3448 17.5522 15.443 17.8058 15.5605C18.0598 15.6583 18.333 15.756 18.5673 15.8542C19.0748 16.03 19.5823 16.2452 20.0894 16.4994C20.5809 16.7485 21.0399 17.0576 21.4559 17.4195C21.866 17.772 22.1781 18.2024 22.4316 18.6916C22.6659 19.1813 22.7831 19.7489 22.7639 20.4143C22.7442 21.06 22.6073 21.6469 22.3735 22.1366C22.1195 22.6455 21.7685 23.0562 21.3388 23.4087C20.8898 23.7611 20.3823 24.0153 19.797 24.1916C19.2112 24.3678 18.5673 24.4463 17.884 24.4265C17.2401 24.4073 16.6548 24.3288 16.1276 24.1521C15.6004 23.9763 15.1125 23.7804 14.6828 23.5454C14.297 23.3386 13.9311 23.0963 13.59 22.8217C13.2779 22.606 13.0632 22.4106 12.9264 22.2536L14.3515 20.2381C14.837 20.702 15.3981 21.0793 16.0104 21.3537C16.6543 21.6667 17.3179 21.8232 18.0012 21.8232C18.587 21.8429 19.0748 21.7057 19.5041 21.4514C19.9333 21.1972 20.1283 20.8058 20.1484 20.3161C20.1484 19.9444 20.0313 19.6512 19.7773 19.4162ZM49.1524 17.6333C48.7424 17.2616 48.2934 16.9679 47.7859 16.6939C47.2789 16.4397 46.7713 16.2047 46.2446 16.0285C45.9901 15.9308 45.7366 15.8326 45.4634 15.7348C45.1954 15.6428 44.9398 15.518 44.7023 15.3631C44.468 15.2259 44.2923 15.0502 44.1357 14.8542C43.9955 14.6535 43.9207 14.4141 43.9216 14.169C43.9408 13.7386 44.1362 13.4059 44.5074 13.1907C44.8973 12.9754 45.327 12.8777 45.8341 12.9162C46.4784 12.9557 47.0441 13.0732 47.4935 13.2687C47.9424 13.4844 48.3717 13.7189 48.7621 14.0126L50.1675 12.0163C49.5817 11.5464 48.9378 11.155 48.2742 10.8223C47.6106 10.4896 46.8097 10.3331 45.9123 10.3133H45.8734C45.2876 10.2941 44.7215 10.3721 44.1751 10.5483C43.6287 10.7245 43.1601 10.9595 42.7308 11.2724C42.3015 11.5854 41.9697 11.9966 41.7157 12.4858C41.4622 12.9754 41.3254 13.5624 41.3062 14.2085C41.2865 15.2066 41.5597 16.0285 42.1258 16.6742C42.6854 17.3211 43.3963 17.8187 44.1948 18.1225C44.5655 18.2794 44.9558 18.4354 45.3856 18.5534C45.7952 18.6902 46.1855 18.8471 46.537 19.0229C46.888 19.1991 47.1809 19.395 47.4157 19.6493C47.6495 19.904 47.7859 20.1972 47.7662 20.5689C47.747 21.0586 47.5324 21.45 47.1228 21.7042C46.7127 21.9589 46.2052 22.0957 45.6199 22.0764C44.9251 22.0557 44.2414 21.8959 43.609 21.6065C42.9651 21.2935 42.399 20.9213 41.9304 20.4909L40.486 22.5069C40.6229 22.6441 40.8572 22.8593 41.1501 23.1135C41.4913 23.3883 41.8571 23.6307 42.243 23.8377C42.6722 24.0726 43.1601 24.2686 43.6873 24.4443C44.2337 24.6206 44.8195 24.699 45.4639 24.7188C46.1466 24.738 46.7905 24.66 47.3763 24.4838C47.9621 24.3076 48.4889 24.0529 48.9378 23.7009C49.3813 23.3551 49.7415 22.9136 49.9918 22.4091C50.2453 21.9002 50.3821 21.3128 50.4018 20.6671C50.421 20.0017 50.3039 19.4143 50.0503 18.9251C49.8746 18.4162 49.5625 17.9857 49.1524 17.6333ZM84.5392 17.1066C84.6563 16.9891 84.7932 16.8321 84.9103 16.6954C85.0467 16.5389 85.1639 16.3632 85.2613 16.1277C85.3785 15.8932 85.4568 15.6385 85.535 15.3256C85.5936 15.0126 85.6325 14.6404 85.6325 14.1902C85.6322 13.7554 85.5528 13.3243 85.3982 12.9182C85.2465 12.5089 85.0216 12.1309 84.7346 11.8026C84.4417 11.4699 84.1099 11.1762 83.6999 10.9412C83.2744 10.6957 82.8023 10.5423 82.3141 10.491C81.9823 10.452 81.6116 10.413 81.2213 10.413C80.8112 10.3933 80.4016 10.3933 79.933 10.3933L76.1465 10.4125V24.7395H81.3773C81.8652 24.7395 82.2363 24.7395 82.5484 24.7202C83.0756 24.6615 83.5635 24.544 84.0321 24.348C84.4806 24.1526 84.9103 23.8786 85.2421 23.5262C85.5936 23.1737 85.8668 22.7433 86.0814 22.2733C86.2894 21.7505 86.3954 21.1925 86.3935 20.6296C86.3935 19.6704 86.1986 18.9073 85.8274 18.3396C85.4567 17.7522 85.0275 17.3415 84.5392 17.1066ZM78.5276 12.8594H79.7573C80.1673 12.8594 80.538 12.8594 80.8506 12.8787C81.1627 12.8984 81.4556 12.9182 81.6702 12.9374C82.1581 12.9962 82.5484 13.1531 82.8413 13.4073C83.1534 13.6423 83.3095 13.9947 83.2903 14.4252C83.3095 14.9731 83.1342 15.3843 82.8413 15.6193C82.5287 15.8537 82.1384 16.0107 81.6505 16.069C81.4162 16.1084 81.143 16.1277 80.8309 16.1277H78.5084V12.8594H78.5276ZM83.4463 21.5887C83.0948 21.9209 82.5287 22.1169 81.748 22.1563C81.5142 22.1756 81.2213 22.1949 80.8309 22.1756H78.5084V18.4764H79.6987C80.0698 18.4764 80.4208 18.4764 80.7526 18.4571C81.0844 18.4379 81.3773 18.4379 81.6116 18.4571C82.3727 18.4961 82.9388 18.6723 83.3489 18.9853C83.7584 19.2983 83.9735 19.7292 83.9735 20.2969C83.9927 20.825 83.817 21.256 83.4463 21.5887ZM62.1326 17.0281C61.8594 16.2847 61.469 15.6385 60.9615 15.1296C60.4736 14.6014 59.8878 14.21 59.2242 13.9355C58.5622 13.6606 57.8521 13.521 57.1356 13.5248C56.2381 13.5248 55.4377 13.6813 54.7544 13.9553C54.052 14.249 53.4662 14.6597 52.998 15.1686C52.5294 15.6775 52.1779 16.2649 51.9244 16.9303C51.6901 17.5957 51.5729 18.3199 51.5729 19.083C51.5729 19.9247 51.729 20.6883 52.0219 21.3927C52.3074 22.0589 52.7182 22.6638 53.2319 23.1742C53.7396 23.6668 54.3357 24.0585 54.9888 24.3288C55.6523 24.583 56.3548 24.7202 57.0967 24.7202C57.7799 24.7202 58.3849 24.6615 58.8925 24.544C59.359 24.4566 59.8163 24.3255 60.2585 24.1526C60.6335 23.9824 60.9928 23.7794 61.3321 23.5459C61.6447 23.3307 61.9371 23.115 62.23 22.8997L60.9615 21.1187C60.7857 21.256 60.61 21.3932 60.3954 21.5492C60.161 21.7057 59.8681 21.8429 59.556 21.9801C59.2439 22.0971 58.8925 22.1953 58.4824 22.2738C58.092 22.3321 57.6431 22.3716 57.1552 22.3518C56.8799 22.3291 56.6062 22.2899 56.3356 22.2343C56.0466 22.1576 55.7703 22.0389 55.5155 21.8819C55.259 21.7 55.0234 21.49 54.813 21.256C54.5984 21.0013 54.4423 20.6878 54.3444 20.3161L54.3252 20.2184H62.4644L62.484 19.5924C62.5229 18.6136 62.4058 17.772 62.1326 17.0281ZM54.2469 18.0657L54.2666 17.9872C54.3055 17.6742 54.403 17.5173 54.5009 17.302L54.5595 17.1846C54.7261 16.9042 54.9447 16.6584 55.2034 16.4604C55.4585 16.2657 55.7509 16.1259 56.0624 16.0497C56.3942 15.9515 56.726 15.8927 57.0578 15.8927C57.8385 15.9125 58.4824 16.1277 58.951 16.5586C59.1854 16.7541 59.3803 16.9501 59.5363 17.1653C59.6929 17.3805 59.7904 17.6347 59.8292 17.9674L59.8489 18.0657H54.2469ZM71.7549 14.6207L71.5989 14.4839C71.2671 14.1902 70.8374 13.9553 70.3495 13.7988C69.8809 13.6226 69.3153 13.5243 68.6709 13.5243C67.9487 13.5243 67.2655 13.6616 66.6413 13.936C66.0241 14.1893 65.4708 14.577 65.0212 15.0709C64.5526 15.56 64.2011 16.1672 63.9279 16.8716C63.6744 17.5567 63.5375 18.3396 63.5375 19.2005C63.5375 19.9642 63.6744 20.6883 63.9279 21.3537C64.2011 22.0191 64.5526 22.5863 65.0212 23.0957C65.4877 23.5853 66.036 23.9894 66.6413 24.2898C67.2655 24.5633 67.929 24.7005 68.6709 24.7005C69.3153 24.7005 69.8809 24.622 70.3495 24.4458C70.8374 24.27 71.2671 24.0153 71.5989 23.7024L71.7549 23.5459V24.6807H74.2729V13.8378H71.7549V14.6207ZM71.5206 20.4923C71.3646 20.8645 71.1499 21.1972 70.8959 21.4514C70.6424 21.7062 70.3495 21.8819 70.0177 22.0191C69.6854 22.1361 69.3357 22.1957 68.9835 22.1953C68.183 22.1953 67.5195 21.9209 66.973 21.3927C66.4261 20.825 66.1726 20.0816 66.1726 19.1615C66.1726 18.2612 66.4458 17.5173 66.973 16.9303C67.5195 16.3429 68.183 16.0492 68.9835 16.0492C69.3541 16.0492 69.7056 16.1277 70.0177 16.2649C70.3692 16.4017 70.6616 16.5972 70.8959 16.8716C71.1499 17.1258 71.3646 17.459 71.5206 17.8697C71.6767 18.2612 71.7549 18.6916 71.7549 19.2005C71.7549 19.6704 71.6767 20.1009 71.5206 20.4923ZM95.3528 14.6207L95.1968 14.4839C94.865 14.1902 94.4357 13.9553 93.9474 13.7988C93.4792 13.6226 92.9131 13.5243 92.2692 13.5243C91.5471 13.5243 90.8638 13.6616 90.2391 13.936C89.622 14.1893 89.0686 14.577 88.6191 15.0709C88.1504 15.56 87.7994 16.1672 87.5262 16.8716C87.2722 17.5567 87.1359 18.3396 87.1359 19.2005C87.1359 19.9642 87.2722 20.6883 87.5262 21.3537C87.7994 22.0191 88.1504 22.5863 88.6191 23.0957C89.0857 23.5852 89.6339 23.9893 90.2391 24.2898C90.8638 24.5633 91.5274 24.7005 92.2692 24.7005C92.9131 24.7005 93.4792 24.622 93.9474 24.4458C94.4357 24.27 94.865 24.0153 95.1968 23.7024L95.3528 23.5459V24.6807H97.8708V13.8965H95.3528V14.6207ZM95.1185 20.4923C94.9625 20.8645 94.7478 21.1972 94.4943 21.4514C94.2403 21.7062 93.9474 21.8819 93.6156 22.0191C93.2833 22.1361 92.9336 22.1957 92.5813 22.1953C91.7809 22.1953 91.1173 21.9209 90.5709 21.3927C90.0245 20.825 89.7705 20.0816 89.7705 19.1615C89.7705 18.2612 90.0437 17.5173 90.5709 16.9303C91.1173 16.3429 91.7809 16.0492 92.5813 16.0492C92.952 16.0492 93.2838 16.1277 93.6156 16.2649C93.9671 16.4017 94.26 16.5972 94.4943 16.8716C94.7478 17.1258 94.9625 17.459 95.1185 17.8697C95.275 18.2612 95.3528 18.6916 95.3528 19.2005C95.3528 19.6704 95.275 20.1009 95.1185 20.4923ZM116.257 18.5751L120.844 13.545H117.526L113.739 17.6747V10.2373H111.202V24.7202H113.739V21.4327L114.578 20.4928L117.857 24.7202H121L116.257 18.5751ZM108.937 16.0497C108.703 15.3843 108.255 14.7974 107.61 14.3082C106.966 13.8185 106.146 13.5643 105.171 13.5643C104.663 13.5643 104.136 13.6423 103.609 13.7993C103.148 13.9378 102.717 14.1637 102.341 14.4647V13.8965H99.7832V24.7202H102.341V18.927C102.36 18.5356 102.399 18.1639 102.438 17.8114C102.497 17.4397 102.594 17.1263 102.75 16.8523C102.906 16.5784 103.141 16.3632 103.433 16.1869C103.726 16.0107 104.097 15.9125 104.546 15.8932C105.112 15.874 105.561 16.0304 105.912 16.3242C106.263 16.6371 106.498 17.0286 106.615 17.5375C106.674 17.7724 106.712 18.0854 106.752 18.4769C106.771 18.8486 106.791 19.3965 106.791 20.1211V24.7202H109.309V19.4952C109.312 18.8814 109.292 18.2678 109.25 17.6554C109.214 17.1093 109.109 16.5694 108.937 16.0497Z" fill="#EA5F00"/>
</g>
<defs>
<clipPath id="clip0_9_440">
<rect width="121" height="39" fill="white"/>
</clipPath>
</defs>
</svg>
