<svg width="88" height="64" viewBox="0 0 88 64" fill="none" xmlns="http://www.w3.org/2000/svg">
<path fill-rule="evenodd" clip-rule="evenodd" d="M25.3305 38.7708C23.4641 39.1339 21.0548 38.5032 19.7502 37.0984C19.1598 36.4676 20.112 35.5024 20.7024 36.1427C21.5785 37.0888 23.1498 37.538 24.4259 37.5093C26.0543 37.4711 27.5017 35.9898 26.578 34.327C25.2924 32.0239 22.1404 32.6737 20.512 30.858C19.1978 29.3958 19.8264 27.1023 21.3595 26.0893C22.9689 25.0285 25.74 25.0667 27.0637 26.5862C27.635 27.236 26.6828 28.2013 26.1114 27.5419C25.0448 26.3091 22.5213 26.4811 21.5595 27.7425C20.1882 29.5487 22.2356 30.5235 23.6736 30.9535C25.6448 31.5556 27.8255 32.645 28.1874 34.9099C28.4826 36.7352 27.0732 38.4267 25.3305 38.7708ZM12.8652 21.6646H35.0914C36.5769 21.6646 37.7768 22.8783 37.7768 24.3595V39.9749C37.7768 41.4657 36.5674 42.6698 35.0914 42.6698H12.2177C10.7321 42.6698 9.53223 41.4657 9.52271 39.9749V20.6898C9.52271 19.9922 10.1036 19.5048 10.7892 19.4188L31.2823 16.7908C31.9869 16.7908 32.5488 17.3642 32.5488 18.0618V20.2407H11.5796C11.5796 21.1677 11.8558 21.6646 12.8652 21.6646Z" fill="#ED4C2F"/>
<path fill-rule="evenodd" clip-rule="evenodd" d="M46.9092 18.0141C46.0236 17.0393 44.1762 17.0106 43.1001 17.6891C42.0717 18.339 41.6527 19.8202 42.5287 20.7568C43.6143 21.9131 45.7189 21.5022 46.5759 22.9834C47.1949 24.0538 46.2236 25.0094 45.138 25.0285C44.2809 25.0476 43.2334 24.761 42.6525 24.1493C42.2621 23.7384 41.6241 24.35 42.0145 24.761C42.8811 25.6688 44.4904 26.0702 45.7379 25.8313C46.8997 25.6115 47.8425 24.522 47.652 23.3561C47.4139 21.9036 45.9569 21.1964 44.6428 20.8141C43.6905 20.537 42.3192 19.9062 43.2334 18.7499C43.881 17.9376 45.557 17.8325 46.2712 18.6161C46.6521 19.0462 47.2901 18.4345 46.9092 18.0141ZM53.2324 22.4292V25.4777C53.2324 26.0511 52.3277 26.0511 52.3277 25.4777V22.4961C52.2991 22.1329 52.0896 21.808 51.7754 21.6264C51.1373 21.3493 49.966 21.4735 49.2804 22.3527V25.4777C49.2804 26.0511 48.3757 26.0511 48.3757 25.4777V17.6605C48.3757 17.0871 49.2804 17.0871 49.2804 17.6605V21.1773C50.385 20.4414 51.7849 20.5179 52.4515 20.9766C52.9562 21.2728 53.2514 21.8367 53.2324 22.4292ZM68.3164 22.8305C68.326 22.7923 68.3355 22.7636 68.345 22.735C68.564 22.0182 69.2973 21.6073 70.0401 21.5882C70.8971 21.5691 71.3732 22.1425 71.5256 22.8305H68.3164ZM72.4684 23.2701C72.4493 22.0756 71.8208 20.9861 70.5162 20.7472C69.3925 20.537 68.0784 21.1199 67.6022 22.1425C67.107 23.2032 67.3165 24.6654 68.2974 25.4108C69.3544 26.2135 71.0114 25.9651 72.097 25.3726C72.6017 25.0954 72.1446 24.3405 71.6399 24.6176C70.9542 24.9903 70.0496 25.1814 69.2782 24.9234C68.6973 24.7323 68.3736 24.2545 68.2783 23.7097H72.0208C72.2684 23.7097 72.4684 23.5186 72.4684 23.2701ZM74.3063 22.8305C74.3158 22.8019 74.3253 22.7636 74.3348 22.735C74.5539 22.0182 75.2871 21.6073 76.0299 21.5882C76.8869 21.5691 77.3631 22.1425 77.5154 22.8305H74.3063ZM78.4677 23.2606C78.4487 22.066 77.8202 20.9766 76.5155 20.7377C75.3919 20.5274 74.0777 21.1104 73.6016 22.1329C73.1064 23.1937 73.3159 24.6558 74.2967 25.4012C75.3538 26.204 77.0107 25.9555 78.0963 25.363C78.601 25.0859 78.1439 24.3309 77.6392 24.6081C76.9536 24.9903 76.0489 25.1719 75.2776 24.9139C74.6967 24.7227 74.3729 24.2449 74.2777 23.7002H78.0201C78.2582 23.7002 78.4582 23.509 78.4677 23.2606ZM56.9653 21.6551C56.0225 21.6551 55.2512 22.4005 55.2512 23.3179C55.2512 24.2353 56.013 24.9808 56.9653 24.9808C57.9176 24.9808 58.6699 24.2353 58.6699 23.3179C58.6699 22.4005 57.8985 21.6551 56.9653 21.6551ZM56.9653 25.9173C55.4893 25.9173 54.2894 24.7514 54.2894 23.3084C54.2894 21.8653 55.4893 20.6994 56.9653 20.6994C58.4413 20.6994 59.6412 21.8653 59.6412 23.3084C59.6412 24.7514 58.4413 25.9173 56.9653 25.9173ZM63.6027 24.9808C62.6599 24.9808 61.8981 24.2353 61.8981 23.3179C61.9076 22.4865 62.5171 21.7984 63.336 21.6742H63.3551C63.4408 21.6646 63.5265 21.6551 63.6122 21.6551C64.2788 21.6551 64.8882 22.0373 65.1739 22.649C65.1739 22.649 65.1739 22.649 65.1739 22.6585C65.2691 22.8688 65.3168 23.0886 65.3168 23.3179C65.3072 24.2353 64.5454 24.9808 63.6027 24.9808ZM63.6027 20.709C62.8408 20.709 62.1171 21.0244 61.6029 21.5786V20.9575C61.6029 20.3936 60.6982 20.3936 60.6982 20.9575V28.3255C60.6982 28.8894 61.6029 28.8894 61.6029 28.3255V25.0477C62.1171 25.6115 62.8408 25.9269 63.6027 25.9173C65.0787 25.9173 66.2786 24.7514 66.2786 23.3084C66.2786 21.8653 65.0787 20.709 63.6027 20.709Z" fill="#ED4C2F"/>
<path fill-rule="evenodd" clip-rule="evenodd" d="M59.0792 34.155C60.7933 34.155 62.1932 35.5502 62.1932 37.28C62.1932 39.0097 60.8029 40.4049 59.0792 40.4049C57.3556 40.4049 55.9653 39.0097 55.9653 37.28C55.9653 35.5502 57.3651 34.155 59.0792 34.155ZM62.5646 31.9761H64.6691V42.5743H62.5646V41.3797C60.3077 43.3101 56.9081 43.033 54.9845 40.7681C53.0608 38.5032 53.337 35.0915 55.5939 33.1611C57.6032 31.4505 60.5458 31.4505 62.5551 33.1611V31.9761H62.5646ZM44.2808 35.8656V30.1412H47.5186C49.3374 30.1412 50.8135 31.4218 50.8135 33.0082C50.8135 34.5946 49.3374 35.8752 47.5186 35.8752L44.2808 35.8656ZM41.8906 42.6698H44.2808V38.2738H47.5186C50.8706 38.2738 53.5846 35.9134 53.5846 33.0082C53.5846 30.103 50.8611 27.7426 47.5186 27.7426H41.8811L41.8906 42.6698ZM70.3828 47.2092H67.5259L70.5828 41.4084L65.5547 31.8805H68.6592L72.135 38.465L75.6108 31.8805H78.4676L70.3828 47.2092Z" fill="#ED4C2F"/>
</svg>
