<svg width="57" height="57" viewBox="0 0 57 57" fill="none" xmlns="http://www.w3.org/2000/svg">
<rect width="57" height="57" rx="28.5" fill="#282828"/>
<path d="M24.514 33.23V34H18.42V33.23L19.608 33.208L18.574 21.922L14.328 31.536H13.646L9.092 21.856L8.674 33.208L9.862 33.23V34H5.044V33.23L5.902 33.208L8.014 20.052L6.804 20.03V19.26H11.864L15.406 26.454L18.464 19.26H23.018V20.03L21.852 20.052L23.656 33.208L24.514 33.23ZM35.8368 33.362V34H31.1288V33.362L31.9428 33.296V28.654C31.9428 28.0087 31.7594 27.51 31.3928 27.158C31.0408 26.806 30.5494 26.6227 29.9188 26.608L29.2148 27.334L29.1268 33.296L29.9408 33.362V34H25.2108V33.362L26.0248 33.296L25.9588 25.42L25.1228 25.618L24.9028 24.958L28.3788 23.88L29.1488 26.344L30.9748 23.726C32.3681 23.726 33.3948 24.056 34.0548 24.716C34.7148 25.376 35.0448 26.3953 35.0448 27.774V33.296L35.8368 33.362ZM49.9714 19.26V20.03L49.0474 20.052L44.8454 27.708V33.208L45.9234 33.23V34H40.1154V33.23L41.1934 33.208V28.038L36.9914 20.052L36.0674 20.03V19.26H42.5354V20.03L41.4574 20.052L44.2514 26.432L46.2754 20.052L45.1534 20.03V19.26H49.9714Z" fill="white"/>
</svg>
