<svg width="30" height="30" viewBox="0 0 30 30" fill="none" xmlns="http://www.w3.org/2000/svg">
<path fill-rule="evenodd" clip-rule="evenodd" d="M26.6717 0C27.5549 0.00132478 28.4014 0.353099 29.0255 0.978077C29.6495 1.60305 30 2.45014 30 3.33333V6.66667H26.6667V4.02333L24.0233 6.66667H19.31L22.6433 3.33333H19.0233L15.69 6.66667H10.9767L14.31 3.33333H10.69L7.35667 6.66667H0V3.33333C0 2.44928 0.351189 1.60143 0.976311 0.976311C1.60143 0.351189 2.44928 0 3.33333 0H26.6717ZM0 10V26.6667C0 27.5507 0.351189 28.3986 0.976311 29.0237C1.60143 29.6488 2.44928 30 3.33333 30H26.6667C27.5507 30 28.3986 29.6488 29.0237 29.0237C29.6488 28.3986 30 27.5507 30 26.6667V10H0ZM3.33333 5.97667L5.97667 3.33333H3.33333V5.97667ZM10.9217 13.51C11.1984 13.3715 11.5082 13.3129 11.8164 13.3405C12.1246 13.3682 12.419 13.4811 12.6667 13.6667L19.3333 18.6667C19.5403 18.8219 19.7083 19.0232 19.824 19.2546C19.9398 19.4861 20 19.7413 20 20C20 20.2587 19.9398 20.5139 19.824 20.7454C19.7083 20.9768 19.5403 21.1781 19.3333 21.3333L12.6667 26.3333C12.4191 26.519 12.1246 26.6321 11.8163 26.6599C11.5081 26.6877 11.1982 26.6291 10.9213 26.4907C10.6445 26.3523 10.4116 26.1395 10.2489 25.8762C10.0862 25.6129 10 25.3095 10 25V15C10.0002 14.6906 10.0865 14.3873 10.2493 14.1241C10.412 13.861 10.6449 13.6483 10.9217 13.51Z" fill="white"/>
</svg>
