<svg width="20" height="27" viewBox="0 0 20 27" fill="none" xmlns="http://www.w3.org/2000/svg">
<path fill-rule="evenodd" clip-rule="evenodd" d="M10 0C8.23189 0 6.5362 0.702379 5.28595 1.95262C4.03571 3.20286 3.33333 4.89856 3.33333 6.66667C3.33333 8.43478 4.03571 10.1305 5.28595 11.3807C6.5362 12.631 8.23189 13.3333 10 13.3333C11.7681 13.3333 13.4638 12.631 14.714 11.3807C15.9643 10.1305 16.6667 8.43478 16.6667 6.66667C16.6667 4.89856 15.9643 3.20286 14.714 1.95262C13.4638 0.702379 11.7681 0 10 0ZM6.66667 15C4.89856 15 3.20286 15.7024 1.95262 16.9526C0.702379 18.2029 0 19.8986 0 21.6667V23.3333C0 24.2174 0.351189 25.0652 0.976311 25.6904C1.60143 26.3155 2.44928 26.6667 3.33333 26.6667H16.6667C17.5507 26.6667 18.3986 26.3155 19.0237 25.6904C19.6488 25.0652 20 24.2174 20 23.3333V21.6667C20 19.8986 19.2976 18.2029 18.0474 16.9526C16.7971 15.7024 15.1014 15 13.3333 15H6.66667Z" fill="white"/>
</svg>
